<?xml version="1.0" encoding="utf-8"?>
<!-- Generator: Adobe Illustrator 16.0.0, SVG Export Plug-In . SVG Version: 6.00 Build 0)  -->
<!DOCTYPE svg PUBLIC "-//W3C//DTD SVG 1.1//EN" "http://www.w3.org/Graphics/SVG/1.1/DTD/svg11.dtd">
<svg version="1.1" id="Calque_1" xmlns="http://www.w3.org/2000/svg" xmlns:xlink="http://www.w3.org/1999/xlink" x="0px" y="0px"
	 width="600px" height="257.022px" viewBox="0 0 600 257.022" enable-background="new 0 0 600 257.022" xml:space="preserve">
<g>
	<path fill="#1D1D1B" d="M508.047,226.424c-8.555-0.095-15.777-3.879-19.31-10.122c-2.441-4.319-2.613-9.909-0.448-14.596
		c1.928-4.18,5.453-7.044,9.668-7.862l2.462,12.71c0.011-0.004,0.031-0.011,0.038-0.014c-0.527,0.311-1.08,2.273-0.451,3.386
		c1.361,2.402,5.093,3.515,8.188,3.55L508.047,226.424z"/>
	<path fill="#1D1D1B" d="M502.531,171.084l-3.977-3.067c-3.214-2.479-5.299-7.614-1.497-14.585
		c22.871-41.989,46.448-84.772,70.071-127.156l11.312,6.303c-22.486,40.338-44.924,81.039-66.756,121.07l3.743,1.053
		c-1.477,5.232-4.648,9.954-8.937,13.298L502.531,171.084z"/>
	<path fill="#1D1D1B" d="M359.118,203.434c-20.892,0-39.688-7.729-51.006-21.171c-12.833-15.239-16.404-37.876-9.323-59.073
		c5.693-17.033,18.088-33.177,35.845-46.685c15.033-11.434,28.933-16.913,42.535-16.862c15.799,0.1,34.392,10.124,37.732,28.504
		l-12.738,2.315c-1.99-10.953-14.568-17.805-25.078-17.871c-0.074-0.002-0.15-0.002-0.225-0.002
		c-10.559,0-21.808,4.654-34.389,14.22c-15.68,11.929-26.539,25.928-31.404,40.483c-5.575,16.692-2.848,34.996,6.949,46.632
		c9.626,11.431,26.666,17.523,45.512,16.429c17.869-1.088,35.238-7.845,52.034-14.382l4.693,12.066
		c-17.723,6.897-36.05,14.029-55.944,15.235C362.57,203.381,360.836,203.434,359.118,203.434z"/>
	<path fill="#1D1D1B" d="M203.626,189.419c-4.151,0-8.189-0.812-11.878-2.466c-12.451-5.575-19.979-20.255-20.134-39.268
		c-0.259-31.446,15.045-62.917,39.938-82.133l7.912,10.248c-21.753,16.793-35.128,44.297-34.901,71.78
		c0.042,5.173,1.065,22.448,12.478,27.558c5.292,2.372,12.425,1.497,18.623-2.267c5.373-3.267,10.161-8.376,15.524-16.564
		c6.117-9.339,11.051-19.437,14.666-30.008c2.27-6.639,5.19-18.723-0.754-25.065c-5.709-6.09-16.823-4.134-20.094-3.388
		c-5.272,1.198-11.103,4.271-11.446,8.191l-12.899-1.133c0.979-11.138,11.734-17.471,21.476-19.685
		c13.464-3.055,25.275-0.451,32.411,7.16c7.95,8.483,9.181,21.661,3.559,38.108c-3.967,11.595-9.377,22.668-16.086,32.913
		c-4.36,6.652-10.528,15.001-19.63,20.534C216.417,187.566,209.892,189.419,203.626,189.419z"/>
	<path fill="#1D1D1B" d="M34.938,210.212L27.967,199.3c29.069-18.565,55.201-41.241,77.67-67.393
		c7.062-8.219,12.418-15.348,15.6-23.425c3.452-8.763,3.534-17.628,0.224-24.324c-3.482-7.037-10.811-12.62-23.063-17.563
		c-24.076-9.718-50.343-12.644-75.963-8.448L20.342,45.37c27.963-4.575,56.626-1.383,82.901,9.218
		c9.671,3.903,23.287,10.623,29.822,23.83c4.928,9.968,5.007,22.656,0.217,34.81c-4.073,10.342-10.974,19.146-17.824,27.117
		C92.164,167.458,65.073,190.965,34.938,210.212z"/>
	<path fill="#1D1D1B" d="M40.473,184.592l-12.915-0.721l0.184-15.176l1.289,0.014c2.332-23.798,4.606-48.048,6.784-72.287
		c1.179-13.167,2.397-26.782,0.988-40.073c-0.089-0.843-0.53-1.838-0.782-2.126c0.499,0.57,2.331,1.233,3.914,0.397L33.9,43.166
		c2.786-1.471,5.972-1.467,8.741,0.011c4.232,2.257,6.583,7.555,7.035,11.804c1.544,14.554,0.21,29.452-0.967,42.598
		C46.081,126.838,43.311,156.112,40.473,184.592z"/>
</g>
</svg>
